<?xml version="1.0" encoding="UTF-8" standalone="no"?>
<svg width="211px" height="238px" viewBox="0 0 211 238" version="1.1" xmlns="http://www.w3.org/2000/svg" xmlns:xlink="http://www.w3.org/1999/xlink" xmlns:sketch="http://www.bohemiancoding.com/sketch/ns">
    <!-- Generator: Sketch 3.3.2 (12043) - http://www.bohemiancoding.com/sketch -->
    <title>Fill 1 + Fill 2 + Fill 3 Copy 2</title>
    <desc>Created with Sketch.</desc>
    <defs></defs>
    <g id="Welcome" stroke="none" stroke-width="1" fill="none" fill-rule="evenodd" sketch:type="MSPage">
        <g id="Login-Screen" sketch:type="MSArtboardGroup" transform="translate(-215.000000, -183.000000)" fill="#FED745">
            <g id="Fill-1-+-Fill-2-+-Fill-3-Copy-2" sketch:type="MSLayerGroup" transform="translate(215.000000, 183.000000)">
                <path d="M192.718162,48.8387308 L128.879395,11.7457265 L117.199153,18.5347564 L186.872206,59.0340214 C193.033213,62.6164679 198.4591,72.0600321 198.4591,79.2249252 L198.4591,161.83262 C198.4591,168.997513 193.033213,178.429331 186.872206,182.023524 L93.3485889,236.394491 L96.4290923,236.993524 C99.2178814,237.533827 101.749962,237.803979 104.212031,237.803979 C110.723095,237.803979 116.907439,236.277034 121.64488,233.528534 L192.718162,192.23056 C202.496426,186.545628 210.151011,173.190737 210.151011,161.83262 L210.151011,79.2249252 C210.151011,67.8668077 202.496426,54.5236624 192.718162,48.8387308" id="Fill-1" sketch:type="MSShapeGroup"></path>
                <path d="M11.6919108,158.426359 L11.6919108,75.8186645 C11.6919108,68.6420256 17.1061289,59.221953 23.2788043,55.6512521 L116.697405,1.33901282 L113.570227,0.739980769 C110.874786,0.246660256 108.366043,0 105.915643,0 C99.2528871,0 93.0685431,1.46821581 88.4827937,4.14624145 L17.4211804,45.4442158 C7.65458429,51.1291474 0,64.460547 0,75.8186645 L0,158.426359 C0,169.784476 7.65458429,183.139368 17.4211804,188.824299 L81.2599466,225.917303 L92.9518574,219.128274 L23.2788043,178.629009 C17.1061289,175.046562 11.6919108,165.602998 11.6919108,158.426359" id="Fill-2" sketch:type="MSShapeGroup"></path>
                <path d="M166.31218,150.685925 C163.535059,150.685925 161.458053,150.098639 160.034487,148.900575 C158.960978,148.125357 158.435892,146.645395 158.435892,144.46069 L158.435892,108.23687 C158.435892,100.038353 156.370555,93.3315427 152.23988,88.1399316 C149.007685,84.1933675 144.165227,82.2200855 137.700837,82.2200855 C132.811705,82.2200855 128.307635,83.6060812 124.153623,86.4133098 C121.784903,88.0224744 119.521199,90.1367051 117.38585,92.7090192 C115.728913,94.6705556 114.025301,97.054938 112.56673,99.2748803 C110.898124,92.1334786 107.934306,87.9754915 104.620431,85.5558718 C104.503745,85.4736517 104.387059,85.4031774 104.282042,85.3209573 C103.546922,84.8276368 102.811802,84.4047906 102.065013,84.0524188 C101.633276,83.8527415 101.18987,83.6648098 100.758133,83.4886239 C100.431413,83.3594209 100.12803,83.2302179 99.8246472,83.1362521 C97.8643268,82.5372201 95.7289779,82.2200855 93.3952632,82.2200855 C88.7861766,82.2200855 84.5504844,83.3829124 80.7115236,85.7085662 C78.7278661,86.9066303 76.7442086,88.5627778 74.7488825,90.6770085 C74.7138768,90.7122457 74.6555339,90.7827201 74.6088596,90.8414487 C74.2004596,91.2642949 73.7803909,91.7223782 73.3719908,92.1804615 L73.3719908,92.203953 C72.2284706,93.5312201 70.7815675,95.3165705 69.1713043,97.6069872 L69.1713043,83.4298953 L46.6742944,83.4298953 L46.6742944,88.9151496 C50.6066037,89.2792671 53.2320328,90.1132137 54.5622502,91.4169893 C55.8691304,92.7090192 56.5225706,94.6823013 56.5225706,97.3368355 L56.5225706,145.153688 C56.5225706,146.786344 55.9741476,148.101865 54.8889703,149.147235 C53.8037929,150.169113 52.2518726,150.685925 50.2332094,150.685925 L47.2110488,150.685925 L47.2110488,156.547043 L78.2494546,156.547043 L78.2494546,150.685925 L76.9892487,150.685925 C74.107111,150.685925 71.9834306,150.157368 70.6182075,149.053269 C69.6497159,148.231068 69.1713043,146.704124 69.1713043,144.46069 L69.1713043,116.658556 C69.1713043,108.906376 70.9449275,103.679528 73.3719908,99.6272521 L73.3719908,99.6507436 C73.6520366,99.1691688 73.9554195,98.7110855 74.270471,98.2530021 C74.2821396,98.217765 74.2938082,98.1825278 74.3171453,98.1590363 C74.5738539,97.7831731 74.8422311,97.4308013 75.1222769,97.0666838 C75.2272941,96.9139893 75.3439798,96.7730406 75.4606655,96.6203462 C78.3311346,93.0026624 82.3801297,91.1703291 87.6659935,91.1703291 C91.8083371,91.1703291 95.0988749,92.7912393 97.5609439,96.0095684 C99.9996758,99.2278974 101.224876,104.396017 101.224876,111.513927 L101.224876,145.153688 C101.224876,146.786344 100.594773,148.101865 99.3462357,149.147235 C98.0860297,150.169113 96.1607151,150.685925 93.5702918,150.685925 L91.8433429,150.685925 L91.8433429,156.547043 L123.348492,156.547043 L123.348492,150.685925 L120.851417,150.685925 C118.529371,150.685925 116.802422,150.192605 115.705576,149.182472 C114.585393,148.17234 114.03697,146.598412 114.03697,144.46069 L114.03697,115.577949 C114.03697,110.562524 114.44537,105.089015 118.902765,98.3587137 C120.139634,96.5028889 121.609874,94.9641987 123.325154,93.7896261 C125.903909,92.0512585 128.774378,91.1703291 131.94823,91.1703291 C136.137248,91.1703291 139.521135,92.6620363 142.076552,95.6219594 C144.643638,98.5936282 145.950519,102.775107 145.950519,108.189887 L145.950519,144.46069 C145.950519,146.539684 145.332084,148.101865 144.106884,149.147235 C142.893352,150.169113 140.793009,150.685925 137.747511,150.685925 L136.545648,150.685925 L136.545648,156.547043 L167.525711,156.547043 L167.525711,150.685925 L166.31218,150.685925" id="Fill-3" sketch:type="MSShapeGroup"></path>
            </g>
        </g>
    </g>
</svg>